HIERARCHY
ROOT Hips
{
  OFFSET 5.72205e-005 65.662 3.42586
  CHANNELS 6 Xposition Yposition Zposition Zrotation Xrotation Yrotation
  JOINT Chest
  {
    OFFSET 0 8.7983 -4.7612
    CHANNELS 3 Zrotation Xrotation Yrotation
    JOINT Chest2
    {
      OFFSET 0 8.0291 0.4195
      CHANNELS 3 Zrotation Xrotation Yrotation
      JOINT Chest3
      {
        OFFSET 0 9.9351 -2.2114
        CHANNELS 3 Zrotation Xrotation Yrotation
        JOINT Neck
        {
          OFFSET 0 22.3885 -0.4656
          CHANNELS 3 Zrotation Xrotation Yrotation
          JOINT Head
          {
            OFFSET -0.0001 12.643 3.4389
            CHANNELS 3 Zrotation Xrotation Yrotation
            End Site
            {
              OFFSET 0.0001 17.6655 0.5274
            }
          }
        }
        JOINT LeftCollar
        {
          OFFSET 2.2603 21.606 7.4023
          CHANNELS 3 Zrotation Xrotation Yrotation
          JOINT LeftShoulder
          {
            OFFSET 13.5163 -1.1332 -5.0146
            CHANNELS 3 Zrotation Xrotation Yrotation
            JOINT LeftElbow
            {
              OFFSET -0.0995 -28.05 -0.2431
              CHANNELS 3 Zrotation Xrotation Yrotation
              JOINT LeftWrist
              {
                OFFSET 0.0679 -23.3996 -0.1402
                CHANNELS 3 Zrotation Xrotation Yrotation
                JOINT LeftFinger1
                {
                  OFFSET 0.7932 -9.069 2.5189
                  CHANNELS 3 Zrotation Xrotation Yrotation
                  JOINT LeftFinger11
                  {
                    OFFSET -0.8272 -3.3923 0.5977
                    CHANNELS 3 Zrotation Xrotation Yrotation
                    JOINT LeftFinger12
                    {
                      OFFSET -0.5649 -2.3158 0.4082
                      CHANNELS 3 Zrotation Xrotation Yrotation
                      End Site
                      {
                        OFFSET -0.4919 -1.6479 0.2673
                      }
                    }
                  }
                }
                JOINT LeftFinger2
                {
                  OFFSET 0.9159 -9.2044 0.2193
                  CHANNELS 3 Zrotation Xrotation Yrotation
                  JOINT LeftFinger21
                  {
                    OFFSET 0.0117 -4.1944 -0.0248
                    CHANNELS 3 Zrotation Xrotation Yrotation
                    JOINT LeftFinger22
                    {
                      OFFSET 0.0071 -2.3249 -0.0142
                      CHANNELS 3 Zrotation Xrotation Yrotation
                      End Site
                      {
                        OFFSET -0.1475 -2.0882 0.0028
                      }
                    }
                  }
                }
                JOINT LeftFinger3
                {
                  OFFSET 0.6113 -8.7231 -2.0637
                  CHANNELS 3 Zrotation Xrotation Yrotation
                  JOINT LeftFinger31
                  {
                    OFFSET -0.1927 -3.8059 -0.2383
                    CHANNELS 3 Zrotation Xrotation Yrotation
                    JOINT LeftFinger32
                    {
                      OFFSET -0.1091 -2.1688 -0.1362
                      CHANNELS 3 Zrotation Xrotation Yrotation
                      End Site
                      {
                        OFFSET -0.2358 -1.9176 -0.0906
                      }
                    }
                  }
                }
                JOINT LeftFinger4
                {
                  OFFSET -0.6151 -8.0947 -3.5641
                  CHANNELS 3 Zrotation Xrotation Yrotation
                  JOINT LeftFinger41
                  {
                    OFFSET -0.4882 -2.341 -0.6462
                    CHANNELS 3 Zrotation Xrotation Yrotation
                    JOINT LeftFinger42
                    {
                      OFFSET -0.3575 -1.7167 -0.4742
                      CHANNELS 3 Zrotation Xrotation Yrotation
                      End Site
                      {
                        OFFSET -0.4187 -1.5237 -0.3496
                      }
                    }
                  }
                }
                JOINT LeftFinger0
                {
                  OFFSET -1.42 -1.8761 1.4223
                  CHANNELS 3 Zrotation Xrotation Yrotation
                  JOINT LeftFinger01
                  {
                    OFFSET -1.1471 -3.4929 2.6334
                    CHANNELS 3 Zrotation Xrotation Yrotation
                    JOINT LeftFinger02
                    {
                      OFFSET -0.823 -2.3 1.6571
                      CHANNELS 3 Zrotation Xrotation Yrotation
                      End Site
                      {
                        OFFSET -0.5822 -1.6914 1.1582
                      }
                    }
                  }
                }
              }
            }
          }
        }
        JOINT RightCollar
        {
          OFFSET -2.2603 21.606 7.4023
          CHANNELS 3 Zrotation Xrotation Yrotation
          JOINT RightShoulder
          {
            OFFSET -13.5187 -1.1334 -5.0155
            CHANNELS 3 Zrotation Xrotation Yrotation
            JOINT RightElbow
            {
              OFFSET 0.0994 -28.0499 -0.2431
              CHANNELS 3 Zrotation Xrotation Yrotation
              JOINT RightWrist
              {
                OFFSET -0.0679 -23.3996 -0.1402
                CHANNELS 3 Zrotation Xrotation Yrotation
                JOINT RightFinger1
                {
                  OFFSET -0.7932 -9.0691 2.5189
                  CHANNELS 3 Zrotation Xrotation Yrotation
                  JOINT RightFinger11
                  {
                    OFFSET 0.8272 -3.3923 0.5977
                    CHANNELS 3 Zrotation Xrotation Yrotation
                    JOINT RightFinger12
                    {
                      OFFSET 0.565 -2.3158 0.4082
                      CHANNELS 3 Zrotation Xrotation Yrotation
                      End Site
                      {
                        OFFSET 0.4919 -1.6479 0.2673
                      }
                    }
                  }
                }
                JOINT RightFinger2
                {
                  OFFSET -0.916 -9.2044 0.2193
                  CHANNELS 3 Zrotation Xrotation Yrotation
                  JOINT RightFinger21
                  {
                    OFFSET -0.0117 -4.1944 -0.0248
                    CHANNELS 3 Zrotation Xrotation Yrotation
                    JOINT RightFinger22
                    {
                      OFFSET -0.0071 -2.3249 -0.0142
                      CHANNELS 3 Zrotation Xrotation Yrotation
                      End Site
                      {
                        OFFSET 0.1475 -2.0882 0.0028
                      }
                    }
                  }
                }
                JOINT RightFinger3
                {
                  OFFSET -0.6113 -8.7231 -2.0637
                  CHANNELS 3 Zrotation Xrotation Yrotation
                  JOINT RightFinger31
                  {
                    OFFSET 0.1927 -3.8059 -0.2383
                    CHANNELS 3 Zrotation Xrotation Yrotation
                    JOINT RightFinger32
                    {
                      OFFSET 0.1091 -2.1688 -0.1362
                      CHANNELS 3 Zrotation Xrotation Yrotation
                      End Site
                      {
                        OFFSET 0.2358 -1.9176 -0.0906
                      }
                    }
                  }
                }
                JOINT RightFinger4
                {
                  OFFSET 0.6151 -8.0947 -3.564
                  CHANNELS 3 Zrotation Xrotation Yrotation
                  JOINT RightFinger41
                  {
                    OFFSET 0.4882 -2.341 -0.6462
                    CHANNELS 3 Zrotation Xrotation Yrotation
                    JOINT RightFinger42
                    {
                      OFFSET 0.3574 -1.7166 -0.4742
                      CHANNELS 3 Zrotation Xrotation Yrotation
                      End Site
                      {
                        OFFSET 0.4187 -1.5237 -0.3496
                      }
                    }
                  }
                }
                JOINT RightFinger0
                {
                  OFFSET 1.4199 -1.8761 1.4221
                  CHANNELS 3 Zrotation Xrotation Yrotation
                  JOINT RightFinger01
                  {
                    OFFSET 1.1472 -3.4929 2.6336
                    CHANNELS 3 Zrotation Xrotation Yrotation
                    JOINT RightFinger02
                    {
                      OFFSET 0.8229 -2.3 1.6571
                      CHANNELS 3 Zrotation Xrotation Yrotation
                      End Site
                      {
                        OFFSET 0.5822 -1.6914 1.1582
                      }
                    }
                  }
                }
              }
            }
          }
        }
      }
    }
  }
  JOINT RightHip
  {
    OFFSET -9.412 3.9771 -0.7758
    CHANNELS 3 Zrotation Xrotation Yrotation
    JOINT RightKnee
    {
      OFFSET -0.7531 -40.938 0
      CHANNELS 3 Zrotation Xrotation Yrotation
      JOINT RightAnkle
      {
        OFFSET 0 -40.1986 0
        CHANNELS 3 Zrotation Xrotation Yrotation
        JOINT RightToe
        {
          OFFSET 0 -4.4182 9.239
          CHANNELS 3 Zrotation Xrotation Yrotation
          End Site
          {
            OFFSET 0 0 6.1981
          }
        }
      }
    }
  }
  JOINT LeftHip
  {
    OFFSET 9.4119 3.9773 -0.7758
    CHANNELS 3 Zrotation Xrotation Yrotation
    JOINT LeftKnee
    {
      OFFSET 0.7532 -40.9383 0
      CHANNELS 3 Zrotation Xrotation Yrotation
      JOINT LeftAnkle
      {
        OFFSET 0 -40.1986 0
        CHANNELS 3 Zrotation Xrotation Yrotation
        JOINT LeftToe
        {
          OFFSET 0 -4.4182 9.239
          CHANNELS 3 Zrotation Xrotation Yrotation
          End Site
          {
            OFFSET 0 0 6.1981
          }
        }
      }
    }
  }
}
MOTION
Frames:	6
Frame Time:	0.0333333
5.72205e-005 65.662 3.42586 0 0 -0 0 0 -0 0 0 -0 0 0 -0 0 0 -0 0 0 -0 0 0 -12.5014 88.1196 14.2451 10.6914 -0.00160068 -0.00239207 0.000740045 -8.4365e-005 7.00714e-005 -9.52055e-007 9.93923e-017 -1.98785e-016 -1.59028e-015 9.93923e-017 -5.96354e-016 -1.59028e-015 -9.93923e-017 -5.96354e-016 -1.59028e-015 9.93923e-017 -1.98785e-016 -1.59028e-015 -0.0128176 0.00232552 8.52707e-005 9.93923e-017 5.96354e-016 -0 9.93923e-017 -1.98785e-016 -1.59028e-015 -0.0160551 0.00299681 0.000857156 -2.48481e-016 0 3.18055e-015 9.93923e-017 -1.98785e-016 -1.59028e-015 -0.0125865 0.0031206 0.00282719 0 1.98785e-016 -0 9.93923e-017 -1.98785e-016 -1.59028e-015 9.93923e-017 -5.96354e-016 -1.59028e-015 -9.93923e-017 -5.96354e-016 -1.59028e-015 -0.865644 0.16582 7.03859 -88.0329 10.2057 -10.5567 0.0015593 -0.00248883 -0.000788628 7.87605e-005 4.10553e-005 1.24965e-005 -3.97569e-016 -7.95139e-016 3.18055e-015 -1.98785e-016 -3.97569e-016 3.18055e-015 -1.98785e-016 0 3.18055e-015 -3.97569e-016 -7.95139e-016 3.18055e-015 0.0129473 0.00231697 -8.70038e-005 9.93923e-017 -7.95139e-016 1.59028e-015 -3.97569e-016 -7.95139e-016 3.18055e-015 0.0163314 0.00303369 -0.000872333 3.97569e-016 7.95139e-016 -3.18055e-015 -3.97569e-016 -7.95139e-016 3.18055e-015 0.0145763 0.00367772 -0.00326275 9.93923e-017 -3.97569e-016 -0 -3.97569e-016 -7.95139e-016 3.18055e-015 -1.98785e-016 -3.97569e-016 3.18055e-015 -1.98785e-016 0 3.18055e-015 3.42482 1.32465 -0.0626183 0.000117508 0.717283 0.000978199 -3.4257 -2.04197 -0.0604716 6.47761e-025 0 -0 -3.42483 1.34017 0.0627307 -0.000193936 0.682302 -0.0013703 3.42574 -2.02253 0.0595886 -8.45714e-024 0 -7.40531e-025 
-44.2042 22.3181 -4.2212 -66.6667 2.13443e-007 2.59276 0.0232436 0.775312 -0.191093 0.0491076 1.55054 -0.382554 0.0490834 1.55054 -0.382553 3.7601e-005 39.461 -2.55914e-005 -1.68776e-005 -60.949 -7.0952e-006 -12.3764 -2.21494 -7.16866 86.1716 -40.0754 7.08377 -9.49676 -25.1722 8.12436 -15.0224 -21.2442 28.4619 -7.43508e-006 -1.17208e-005 -7.94965e-006 2.75391e-006 -8.97553e-007 2.6825e-006 -2.20594e-006 2.97403e-006 2.09543e-006 -7.43508e-006 -1.17208e-005 -7.94965e-006 -0.0128152 0.00232092 8.55503e-005 3.84152e-006 8.28737e-006 -4.40627e-006 -7.43508e-006 -1.17208e-005 -7.94965e-006 -0.0160419 0.00299646 0.000858486 1.10409e-006 -3.54504e-006 -4.5821e-006 -7.43508e-006 -1.17208e-005 -7.94965e-006 -0.012613 0.00312724 0.0028332 -3.08389e-007 -6.48341e-007 -7.40249e-006 -7.43508e-006 -1.17208e-005 -7.94965e-006 2.75391e-006 -8.97553e-007 2.6825e-006 -2.20594e-006 2.97403e-006 2.09543e-006 11.5287 -1.95046 1.69653 -86.4258 -44.1691 -7.67267 9.67044 -25.0843 -8.26927 15.7427 -20.841 -28.2418 6.91042e-006 1.56367e-006 5.79309e-006 -6.91042e-006 -1.56366e-006 -5.7931e-006 6.91042e-006 1.56366e-006 5.79309e-006 6.91042e-006 1.56367e-006 5.79309e-006 0.0129889 0.00232314 -9.51871e-005 6.36111e-015 7.95139e-016 -1.98785e-016 6.91042e-006 1.56367e-006 5.79309e-006 0.0163306 0.00303688 -0.000872998 -3.18055e-015 0 1.98785e-016 6.91042e-006 1.56367e-006 5.79309e-006 0.0146249 0.00371164 -0.00328372 4.77083e-015 -1.59028e-015 1.98785e-016 6.91042e-006 1.56367e-006 5.79309e-006 -6.91042e-006 -1.56366e-006 -5.7931e-006 6.91042e-006 1.56366e-006 5.79309e-006 -57.4802 -33.4956 -47.0455 64.2753 17.4558 -63.7782 -7.38159 27.6271 25.0519 -1.51351e-006 5.40283e-007 4.37377e-007 6.62197 -56.4159 -2.19022 -9.50188 44.1651 23.5145 14.0796 23.3805 -22.9608 7.35503e-015 -3.18055e-015 3.97569e-016 
-60.3448 4.48235 -7.54593 -96.6666 6.4033e-007 3.75951 0.0463011 1.03969 -0.275594 0.0975358 2.07916 -0.552161 0.0975191 2.07917 -0.552164 5.93005e-005 56.2167 -5.37244e-005 0.000104518 -87.3474 0.00010571 -17.7998 -3.068 -4.1665 84.5314 -64.7121 4.81689 -15.0863 -37.3401 10.3004 -21.7545 -30.1923 41.0293 -6.36111e-015 1.49089e-015 4.96962e-016 -3.18055e-015 3.77691e-015 -2.38542e-015 4.13804e-033 2.38542e-015 -9.93923e-017 -6.36111e-015 1.49089e-015 4.96962e-016 -0.0128043 0.00230644 9.31149e-005 3.18055e-015 -8.42322e-008 -4.17448e-015 -6.36111e-015 1.49089e-015 4.96962e-016 -0.0160224 0.00299346 0.000866256 -3.18055e-015 2.28602e-015 2.08724e-015 -6.36111e-015 1.49089e-015 4.96962e-016 -0.0125931 0.00310614 0.00283371 -1.59028e-014 3.77691e-015 -2.28602e-015 -6.36111e-015 1.49089e-015 4.96962e-016 -3.18055e-015 3.77691e-015 -2.38542e-015 4.13804e-033 2.38542e-015 -9.93923e-017 16.9505 -2.84356 -1.43333 -85.5548 -68.7762 -6.34339 15.2324 -37.0076 -10.5329 23.3194 -29.99 -40.32 -5.6703e-006 2.77995e-006 -2.16265e-007 2.79814e-006 2.1065e-006 1.38814e-006 6.27101e-006 -6.11436e-006 1.18285e-005 -5.6703e-006 2.77995e-006 -2.16265e-007 0.0129679 0.00232122 -7.84824e-005 -3.36216e-033 -5.96354e-016 -3.23025e-016 -5.6703e-006 2.77995e-006 -2.16265e-007 0.016351 0.00303383 -0.000867845 3.18055e-015 -9.93923e-017 3.97569e-016 -5.6703e-006 2.77995e-006 -2.16265e-007 0.0146398 0.00367619 -0.00325777 3.18055e-015 7.45443e-017 4.96962e-017 -5.6703e-006 2.77995e-006 -2.16265e-007 2.79814e-006 2.1065e-006 1.38814e-006 6.27101e-006 -6.11436e-006 1.18285e-005 -101.339 -30.8438 -72.4163 99.1753 5.75327 -92.4866 -21.7946 34.7149 48.2892 -4.39899e-006 8.07724e-007 -1.22298e-006 4.0279 -83.711 -10.1409 -34.7302 60.2121 51.0102 27.5765 29.8883 -36.9465 -1.23945e-005 1.09602e-008 -4.88319e-006 
-57.319 8.28858 -6.18087 -90 0 3.50023 0.0415453 0.793404 -0.256592 0.0866497 1.58662 -0.513846 0.086643 1.58661 -0.513842 -8.59427e-005 50.2649 8.05464e-005 1.40352e-005 -79.1931 2.19716e-005 -16.5862 -2.59629 -3.50932 85.0637 -59.6723 5.49762 -14.7809 -36.7171 9.23747 -19.5262 -26.7375 39.146 7.60372e-006 -1.11586e-005 6.57461e-006 3.18055e-015 0 -1.98785e-016 3.18055e-015 0 -0 7.60372e-006 -1.11586e-005 6.57461e-006 -0.0128453 0.00234871 7.9811e-005 3.18055e-015 1.98785e-016 3.97569e-016 7.60372e-006 -1.11586e-005 6.57461e-006 -0.0160165 0.0029793 0.000860679 6.36111e-015 8.54774e-015 -9.54166e-015 7.60372e-006 -1.11586e-005 6.57461e-006 -0.0125635 0.00312582 0.00281446 3.18055e-015 0 1.98785e-016 7.60372e-006 -1.11586e-005 6.57461e-006 3.18055e-015 0 -1.98785e-016 3.18055e-015 0 -0 15.7066 -2.54839 -2.33866 -85.8816 -63.6118 -6.7751 14.6708 -35.9624 -9.6363 21.7077 -27.1369 -38.2184 -1.44245e-030 -9.34288e-015 -8.84592e-015 9.54166e-015 -9.34288e-015 -8.54774e-015 9.54166e-015 -9.59136e-015 -8.74653e-015 -1.44245e-030 -9.34288e-015 -8.84592e-015 0.0129167 0.00230324 -7.28209e-005 -1.37935e-033 -1.98785e-016 -3.97569e-016 -1.44245e-030 -9.34288e-015 -8.84592e-015 0.0162849 0.00302935 -0.000878828 1.27222e-014 9.93923e-017 -0 -1.44245e-030 -9.34288e-015 -8.84592e-015 0.0145742 0.00367576 -0.00326947 -2.47713e-006 2.42707e-006 -4.17666e-008 -1.44245e-030 -9.34288e-015 -8.84592e-015 9.54166e-015 -9.34288e-015 -8.54774e-015 9.54166e-015 -9.59136e-015 -8.74653e-015 -92.3595 -31.8445 -67.8688 91.6594 9.32174 -90.671 -20.2854 32.7365 46.8463 2.48726e-006 -9.79445e-008 6.35069e-008 7.13765 -78.3019 -5.66379 -27.2556 59.1806 43.0065 23.5616 28.0122 -32.9694 -1.32612e-005 2.58607e-007 -3.01986e-006 
-57.5901 8.10369 -5.6919 -90 9.60495e-007 3.50023 0.0423441 0.639719 -0.256285 0.087524 1.27925 -0.513095 0.0875497 1.27924 -0.513091 5.24165e-005 48.4326 -6.87709e-005 6.31495e-006 -77.3107 -4.77249e-006 -16.5774 -2.3629 -2.42358 85.087 -60.028 5.52877 -15.677 -38.4109 8.61943 -18.9694 -25.527 39.8397 -4.47485e-006 -9.80195e-006 1.02472e-005 3.18055e-015 1.25234e-014 1.98785e-016 3.18055e-015 1.2921e-014 1.98785e-016 -4.47485e-006 -9.80195e-006 1.02472e-005 -0.0127824 0.00230386 8.1779e-005 3.18055e-015 -1.98785e-016 1.98785e-016 -4.47485e-006 -9.80195e-006 1.02472e-005 -0.0160674 0.00300345 0.000849441 0 1.35174e-014 -0 -4.47485e-006 -9.80195e-006 1.02472e-005 -0.012615 0.0031309 0.00282868 1.27222e-014 1.25234e-014 -0 -4.47485e-006 -9.80195e-006 1.02472e-005 3.18055e-015 1.25234e-014 1.98785e-016 3.18055e-015 1.2921e-014 1.98785e-016 15.6694 -2.46623 -3.65253 -85.9604 -63.8592 -6.85827 15.3261 -37.2674 -9.19474 21.8006 -26.4698 -38.6516 -6.36111e-015 4.96962e-017 -0 -3.18055e-015 2.48481e-016 9.93923e-017 -2.58627e-034 1.49089e-016 9.93923e-017 -6.36111e-015 4.96962e-017 -0 0.013013 0.00233961 -9.46843e-005 -3.18055e-015 4.96962e-017 1.98785e-016 -6.36111e-015 4.96962e-017 -0 0.0163812 0.00304414 -0.000873997 -3.18055e-015 -1.49089e-016 -9.93923e-017 -6.36111e-015 4.96962e-017 -0 0.0146023 0.00369652 -0.00328143 3.18055e-015 3.47873e-016 -1.98785e-016 -6.36111e-015 4.96962e-017 -0 -3.18055e-015 2.48481e-016 9.93923e-017 -2.58627e-034 1.49089e-016 9.93923e-017 -92.8644 -31.125 -68.1135 91.5934 9.32116 -90.5 -20.2008 32.8393 46.691 -2.55572e-006 5.43944e-007 -8.67818e-007 6.75865 -78.8229 -5.87649 -27.507 60.5461 43.1292 23.1843 27.3977 -32.4678 7.16317e-006 -2.38781e-006 -8.05376e-008 
-57.8612 7.91888 -5.203 -90 0 3.50023 0.043156 0.486116 -0.256047 0.0884497 0.972027 -0.512483 0.0884602 0.972026 -0.512482 -0.000304068 46.5927 0.000369534 -4.02178e-005 -75.4209 -3.67559e-005 -16.5731 -2.13 -1.33646 85.1111 -60.3838 5.56072 -16.6228 -40.1027 7.9489 -18.433 -24.3081 40.5151 2.85107e-006 -1.43927e-005 1.00816e-005 -3.18055e-015 1.98785e-016 -3.97569e-016 3.18055e-015 -1.98785e-016 -3.97569e-016 2.85107e-006 -1.43927e-005 1.00816e-005 -0.0128093 0.00233108 7.76459e-005 -3.18055e-015 0 1.98785e-016 2.85107e-006 -1.43927e-005 1.00816e-005 -0.0160839 0.00298833 0.000860124 -9.54166e-015 1.98785e-016 1.98785e-016 2.85107e-006 -1.43927e-005 1.00816e-005 -0.012638 0.00314267 0.00283114 6.36111e-015 8.34896e-015 -8.74653e-015 2.85107e-006 -1.43927e-005 1.00816e-005 -3.18055e-015 1.98785e-016 -3.97569e-016 3.18055e-015 -1.98785e-016 -3.97569e-016 15.6339 -2.38381 -4.96813 -86.0432 -64.1081 -6.9452 16.0082 -38.5695 -8.7256 21.8987 -25.8028 -39.0838 -9.54166e-015 -1.98785e-016 -1.98785e-016 -9.65467e-006 6.74645e-007 -1.71178e-006 -9.54166e-015 -1.49089e-016 3.97569e-016 -9.54166e-015 -1.98785e-016 -1.98785e-016 0.0129527 0.0023161 -8.61171e-005 3.18055e-015 -9.93923e-017 -9.93923e-017 -9.54166e-015 -1.98785e-016 -1.98785e-016 0.0163061 0.00302473 -0.000862758 2.3591e-006 -2.81672e-006 -8.57344e-006 -9.54166e-015 -1.98785e-016 -1.98785e-016 0.01458 0.00368202 -0.00326803 9.90378e-006 -3.70694e-006 3.57135e-006 -9.54166e-015 -1.98785e-016 -1.98785e-016 -9.65467e-006 6.74645e-007 -1.71178e-006 -9.54166e-015 -1.49089e-016 3.97569e-016 -93.3616 -30.404 -68.3487 91.5268 9.32044 -90.3275 -20.1146 32.9419 46.5336 -1.15874e-005 -9.42385e-008 3.07551e-006 6.36788 -79.3409 -6.1021 -27.7909 61.9138 43.2824 22.8177 26.775 -31.9731 -8.13439e-007 -1.66121e-006 2.39598e-006 
